<?xml version="1.0" encoding="utf-8"?>
<svg width="32" height="32" viewBox="-0.167 -0.216 30.255 32.592" fill="none" xmlns="http://www.w3.org/2000/svg" xmlns:bx="https://boxy-svg.com" preserveAspectRatio="xMidYMid meet"><circle cx="150.501" cy="150.911" r="150" transform="matrix(0, 0.095077, -0.09672, 0, 29.505217, 2.831362)" fill="url(#paint0_linear_149_3)" style=""/><path fill-rule="evenodd" clip-rule="evenodd" d="M 14.879 28.55 C 14.135 28.55 13.533 27.959 13.533 27.231 L 13.533 7.05 C 13.533 6.322 14.135 5.731 14.879 5.731 C 21.305 5.731 26.516 10.839 26.516 17.141 C 26.516 23.441 21.305 28.55 14.879 28.55 Z" fill="white" style=""/><path fill-rule="evenodd" clip-rule="evenodd" d="M 9.576 10.99 C 10.205 10.99 10.718 11.49 10.718 12.11 L 10.718 22.171 C 10.718 22.791 10.205 23.292 9.576 23.292 C 6.112 23.292 3.302 20.539 3.302 17.141 C 3.302 13.742 6.112 10.99 9.576 10.99 Z" fill="white" style=""/><defs><linearGradient id="paint0_linear_149_3" x1="253.59" y1="260.412" x2="51.5902" y2="58.4118" gradientUnits="userSpaceOnUse"><stop stop-color="#FFB800"/><stop offset="1" stop-color="#FFE600"/></linearGradient><bx:export><bx:file format="svg"/></bx:export><view id="view-1" viewBox="25.501 -1.437 0.002 2.318"><title>View 1</title></view></defs></svg>